<svg xmlns="http://www.w3.org/2000/svg" width="35" height="35" viewBox="0 0 24 24" fill="none">
<circle cx="12" cy="12" r="12" fill="white"/>
<path fill-rule="evenodd" clip-rule="evenodd" d="M9.93864 7.03C10.4718 7.00545 10.6418 7 12 7C13.3582 7 13.5282 7.00591 14.0609 7.03C14.5936 7.05409 14.9573 7.13909 15.2755 7.26227C15.6086 7.38818 15.9109 7.585 16.1609 7.83955C16.4155 8.08909 16.6118 8.39091 16.7373 8.72455C16.8609 9.04273 16.9455 9.40636 16.97 9.93818C16.9945 10.4723 17 10.6423 17 12C17 13.3582 16.9941 13.5282 16.97 14.0614C16.9459 14.5932 16.8609 14.9568 16.7373 15.275C16.6118 15.6087 16.4151 15.911 16.1609 16.1609C15.9109 16.4155 15.6086 16.6118 15.2755 16.7373C14.9573 16.8609 14.5936 16.9455 14.0618 16.97C13.5282 16.9945 13.3582 17 12 17C10.6418 17 10.4718 16.9941 9.93864 16.97C9.40682 16.9459 9.04318 16.8609 8.725 16.7373C8.39133 16.6118 8.08901 16.4151 7.83909 16.1609C7.58472 15.9112 7.38787 15.609 7.26227 15.2755C7.13909 14.9573 7.05455 14.5936 7.03 14.0618C7.00545 13.5277 7 13.3577 7 12C7 10.6418 7.00591 10.4718 7.03 9.93909C7.05409 9.40636 7.13909 9.04273 7.26227 8.72455C7.38806 8.39095 7.58505 8.08878 7.83955 7.83909C8.08911 7.58477 8.39112 7.38793 8.72455 7.26227C9.04273 7.13909 9.40636 7.05455 9.93818 7.03H9.93864ZM14.0205 7.93C13.4932 7.90591 13.335 7.90091 12 7.90091C10.665 7.90091 10.5068 7.90591 9.97955 7.93C9.49182 7.95227 9.22727 8.03364 9.05091 8.10227C8.81773 8.19318 8.65091 8.30091 8.47591 8.47591C8.31002 8.6373 8.18235 8.83376 8.10227 9.05091C8.03364 9.22727 7.95227 9.49182 7.93 9.97955C7.90591 10.5068 7.90091 10.665 7.90091 12C7.90091 13.335 7.90591 13.4932 7.93 14.0205C7.95227 14.5082 8.03364 14.7727 8.10227 14.9491C8.18227 15.1659 8.31 15.3627 8.47591 15.5241C8.63727 15.69 8.83409 15.8177 9.05091 15.8977C9.22727 15.9664 9.49182 16.0477 9.97955 16.07C10.5068 16.0941 10.6645 16.0991 12 16.0991C13.3355 16.0991 13.4932 16.0941 14.0205 16.07C14.5082 16.0477 14.7727 15.9664 14.9491 15.8977C15.1823 15.8068 15.3491 15.6991 15.5241 15.5241C15.69 15.3627 15.8177 15.1659 15.8977 14.9491C15.9664 14.7727 16.0477 14.5082 16.07 14.0205C16.0941 13.4932 16.0991 13.335 16.0991 12C16.0991 10.665 16.0941 10.5068 16.07 9.97955C16.0477 9.49182 15.9664 9.22727 15.8977 9.05091C15.8068 8.81773 15.6991 8.65091 15.5241 8.47591C15.3627 8.31003 15.1662 8.18237 14.9491 8.10227C14.7727 8.03364 14.5082 7.95227 14.0205 7.93ZM11.3614 13.5414C11.718 13.6898 12.1152 13.7099 12.485 13.5981C12.8548 13.4862 13.1743 13.2495 13.3889 12.9283C13.6036 12.6071 13.7 12.2213 13.6618 11.8369C13.6237 11.4524 13.4532 11.0932 13.1795 10.8205C13.0051 10.6461 12.7942 10.5126 12.562 10.4296C12.3298 10.3466 12.082 10.3161 11.8366 10.3403C11.5912 10.3645 11.3542 10.4428 11.1426 10.5696C10.9311 10.6964 10.7503 10.8685 10.6133 11.0736C10.4763 11.2786 10.3864 11.5115 10.3502 11.7554C10.314 11.9994 10.3323 12.2483 10.4039 12.4843C10.4754 12.7203 10.5984 12.9376 10.764 13.1203C10.9295 13.3031 11.1336 13.4469 11.3614 13.5414ZM10.1827 10.1827C10.4214 9.94408 10.7047 9.75477 11.0165 9.62562C11.3283 9.49646 11.6625 9.42999 12 9.42999C12.3375 9.42999 12.6717 9.49646 12.9835 9.62562C13.2953 9.75477 13.5786 9.94408 13.8173 10.1827C14.0559 10.4214 14.2452 10.7047 14.3744 11.0165C14.5035 11.3283 14.57 11.6625 14.57 12C14.57 12.3375 14.5035 12.6717 14.3744 12.9835C14.2452 13.2953 14.0559 13.5786 13.8173 13.8173C13.3353 14.2992 12.6816 14.57 12 14.57C11.3184 14.57 10.6647 14.2992 10.1827 13.8173C9.70076 13.3353 9.42999 12.6816 9.42999 12C9.42999 11.3184 9.70076 10.6647 10.1827 10.1827ZM15.14 9.81273C15.1991 9.75694 15.2465 9.68986 15.2792 9.61544C15.312 9.54103 15.3295 9.4608 15.3306 9.37951C15.3318 9.29822 15.3167 9.21752 15.2861 9.14219C15.2556 9.06685 15.2102 8.99841 15.1527 8.94093C15.0952 8.88344 15.0268 8.83807 14.9515 8.80751C14.8761 8.77694 14.7954 8.76181 14.7141 8.76299C14.6328 8.76418 14.5526 8.78166 14.4782 8.81441C14.4038 8.84715 14.3367 8.8945 14.2809 8.95364C14.1724 9.06865 14.113 9.22142 14.1153 9.37951C14.1176 9.53761 14.1815 9.68858 14.2933 9.80038C14.4051 9.91218 14.556 9.97601 14.7141 9.97832C14.8722 9.98062 15.025 9.92122 15.14 9.81273Z" fill="#2B2A2A"/>
</svg>