<svg xmlns="http://www.w3.org/2000/svg" width="103" height="29" viewBox="0 0 103 29" fill="none">
<path d="M25.6675 5.66187H17.6496C16.3428 5.66187 15.1387 6.36192 14.4853 7.49134L11.6758 12.3637C12.2265 12.6811 12.6839 13.1384 13.0106 13.6985L18.6017 23.3779L27.2543 8.39674C27.9544 7.18332 27.077 5.66187 25.6675 5.66187Z" fill="#00A698"/>
<path d="M9.8466 11.8787H1.82864C0.419196 11.8787 -0.458205 13.4001 0.251184 14.6229L5.31024 23.3969L11.6761 12.3734C11.1254 12.0467 10.5 11.8787 9.8466 11.8787Z" fill="#EA552B"/>
<path d="M11.6744 12.363L5.30859 23.3866H18.6003L13.0092 13.6978C12.6825 13.1378 12.2251 12.6804 11.6744 12.363Z" fill="#4723D1"/>
<path d="M9.29441 9.99287C10.4904 9.99287 11.4599 9.02334 11.4599 7.82737C11.4599 6.63139 10.4904 5.66187 9.29441 5.66187C8.09843 5.66187 7.12891 6.63139 7.12891 7.82737C7.12891 9.02334 8.09843 9.99287 9.29441 9.99287Z" fill="#EA552B"/>
<path d="M50.5813 8.6416H54.0163V8.98696L49.5359 20.8972H46.7357L43.7768 12.7859L40.7992 20.8972H38.0083L33.5 8.98696V8.6416H36.9629L39.6045 16.0995L42.3674 8.6416H45.1676L47.9305 16.0995L50.5813 8.6416Z" fill="white"/>
<path d="M55.8905 20.8948V8.63914H59.3721V20.8948H55.8905ZM57.6266 7.41637C58.8027 7.41637 59.7455 6.4643 59.7455 5.29754C59.7455 4.13078 58.7934 3.17871 57.6266 3.17871C56.4599 3.17871 55.5078 4.13078 55.5078 5.29754C55.5078 6.4643 56.4506 7.41637 57.6266 7.41637Z" fill="white"/>
<path d="M67.1678 21.1124C66.2064 21.1124 65.273 21.0004 64.3862 20.767C63.4995 20.543 62.7994 20.235 62.2861 19.8523V16.9401C62.9021 17.3788 63.6395 17.7428 64.4982 18.0135C65.3476 18.2935 66.1784 18.4242 66.9718 18.4242C67.9145 18.4242 68.6332 18.3215 69.1279 18.1162C69.6226 17.9108 69.8653 17.6121 69.8653 17.2201C69.8653 17.0801 69.8373 16.9587 69.7813 16.8467C69.7253 16.7441 69.632 16.6507 69.5106 16.5761C69.3893 16.5014 69.2586 16.436 69.1279 16.3894C68.9973 16.3334 68.8199 16.296 68.6052 16.2587C68.3905 16.2214 68.1945 16.1934 68.0265 16.1747C67.8585 16.156 67.6438 16.128 67.3731 16.1C66.9438 16.044 66.6171 16.0067 66.3837 15.9693C66.1504 15.932 65.8143 15.876 65.3943 15.7827C64.9649 15.6986 64.6289 15.596 64.3769 15.4933C64.1249 15.3906 63.8449 15.2413 63.5182 15.0453C63.2008 14.8493 62.9488 14.6346 62.7714 14.3919C62.5941 14.1492 62.4447 13.8505 62.3234 13.4958C62.2021 13.1318 62.1367 12.7304 62.1367 12.2917C62.1367 11.125 62.6501 10.1916 63.6862 9.47283C64.7223 8.75411 66.0757 8.39941 67.7652 8.39941C68.6052 8.39941 69.464 8.50209 70.3414 8.70744C71.2188 8.91279 71.9842 9.19281 72.6282 9.5475V12.4597C71.9748 12.0397 71.2188 11.7037 70.3507 11.4423C69.492 11.181 68.6986 11.0596 67.9705 11.0596C67.2891 11.0596 66.7477 11.1623 66.3464 11.3583C65.9357 11.5543 65.7303 11.8157 65.7303 12.1424C65.7303 12.2824 65.7583 12.4037 65.805 12.5157C65.861 12.6184 65.9543 12.7211 66.085 12.7958C66.225 12.8798 66.3464 12.9451 66.4584 12.9918C66.5704 13.0384 66.7477 13.0851 66.9904 13.1318C67.2331 13.1785 67.4198 13.2158 67.5691 13.2345C67.7092 13.2531 67.9332 13.2905 68.2412 13.3185C68.6426 13.3651 68.9786 13.4025 69.2306 13.4491C69.492 13.4865 69.8186 13.5518 70.22 13.6452C70.6214 13.7292 70.9574 13.8318 71.2281 13.9438C71.4895 14.0559 71.7788 14.2052 72.0868 14.4012C72.3949 14.5879 72.6375 14.8119 72.8242 15.0453C73.0109 15.288 73.1602 15.5773 73.2816 15.932C73.4029 16.2867 73.4683 16.6787 73.4683 17.0988C73.4683 18.2935 72.8896 19.2643 71.7415 19.9923C70.5654 20.7484 69.0533 21.1124 67.1678 21.1124Z" fill="white"/>
<path d="M87.7429 14.4911V15.6765H78.8569C79.0809 16.4419 79.5662 17.0393 80.2943 17.478C81.0224 17.9167 81.9278 18.1314 83.0012 18.1314C83.7666 18.1314 84.532 18.0007 85.3067 17.73C86.0721 17.4686 86.7068 17.114 87.2108 16.6846V19.7835C86.5948 20.1849 85.8107 20.5115 84.8587 20.7449C83.9066 20.9876 82.9638 21.0996 82.0304 21.0996C79.9956 21.0996 78.3528 20.5209 77.1114 19.3541C75.87 18.1874 75.2539 16.6566 75.2539 14.7524C75.2539 12.8483 75.87 11.3082 77.1114 10.1507C78.3528 8.98398 79.9863 8.40527 82.0118 8.40527C83.7386 8.40527 85.12 8.95598 86.1654 10.0667C87.2202 11.1868 87.7429 12.6523 87.7429 14.4911ZM81.8438 10.9628C81.125 10.9628 80.5183 11.1682 80.0049 11.5882C79.4916 12.0082 79.1369 12.5776 78.9315 13.3057H84.3266C84.2706 12.5963 84.0186 12.0176 83.5706 11.5975C83.1225 11.1775 82.5438 10.9628 81.8438 10.9628Z" fill="white"/>
<path d="M98.83 8.63965H102.452V8.98501L93.8643 25.8797H90.42V25.5343L93.7429 19.1125L88.5625 8.98501V8.63965H92.1841L95.5724 15.6682L98.83 8.63965Z" fill="white"/>
</svg>