<svg xmlns="http://www.w3.org/2000/svg" width="35" height="35" viewBox="0 0 24 24" fill="none">
<circle cx="12" cy="12" r="12" fill="white"/>
<path d="M18 12.4612C18 12.4307 18 12.3961 17.9987 12.356C17.9973 12.2438 17.9946 12.1177 17.992 11.9834C17.9813 11.597 17.9625 11.2119 17.933 10.849C17.8929 10.349 17.8339 9.93213 17.7536 9.61911C17.6688 9.29245 17.5026 8.99453 17.2715 8.75512C17.0405 8.51571 16.7528 8.34321 16.4371 8.25485C16.058 8.14958 15.3161 8.08449 14.2714 8.04432C13.7746 8.02493 13.2429 8.01247 12.7112 8.00554C12.525 8.00277 12.3522 8.00139 12.1969 8H11.8031C11.6478 8.00139 11.475 8.00277 11.2888 8.00554C10.7571 8.01247 10.2254 8.02493 9.72857 8.04432C8.68393 8.08587 7.94062 8.15097 7.56295 8.25485C7.24714 8.34299 6.95929 8.51542 6.72823 8.75486C6.49717 8.9943 6.33102 9.29234 6.24643 9.61911C6.16473 9.93213 6.10714 10.349 6.06696 10.849C6.0375 11.2119 6.01875 11.597 6.00804 11.9834C6.00402 12.1177 6.00268 12.2438 6.00134 12.356C6.00134 12.3961 6 12.4307 6 12.4612V12.5388C6 12.5693 6 12.6039 6.00134 12.644C6.00268 12.7562 6.00536 12.8823 6.00804 13.0166C6.01875 13.403 6.0375 13.7881 6.06696 14.151C6.10714 14.651 6.16607 15.0679 6.24643 15.3809C6.41786 16.0443 6.92143 16.5679 7.56295 16.7452C7.94062 16.8504 8.68393 16.9155 9.72857 16.9557C10.2254 16.9751 10.7571 16.9875 11.2888 16.9945C11.475 16.9972 11.6478 16.9986 11.8031 17H12.1969C12.3522 16.9986 12.525 16.9972 12.7112 16.9945C13.2429 16.9875 13.7746 16.9751 14.2714 16.9557C15.3161 16.9141 16.0594 16.849 16.4371 16.7452C17.0786 16.5679 17.5821 16.0457 17.7536 15.3809C17.8353 15.0679 17.8929 14.651 17.933 14.151C17.9625 13.7881 17.9813 13.403 17.992 13.0166C17.996 12.8823 17.9973 12.7562 17.9987 12.644C17.9987 12.6039 18 12.5693 18 12.5388V12.4612ZM17.0357 12.5332C17.0357 12.5623 17.0357 12.5942 17.0344 12.6316C17.033 12.7396 17.0304 12.8587 17.0277 12.9875C17.0183 13.356 16.9996 13.7244 16.9714 14.0665C16.9353 14.5125 16.8844 14.8781 16.8214 15.1233C16.7384 15.4432 16.4946 15.6967 16.1866 15.7812C15.9054 15.8587 15.1969 15.9211 14.2339 15.9584C13.7464 15.9778 13.2214 15.9903 12.6978 15.9972C12.5143 16 12.3442 16.0014 12.1915 16.0014H11.8085L11.3022 15.9972C10.7786 15.9903 10.2549 15.9778 9.76607 15.9584C8.80313 15.9197 8.0933 15.8587 7.81339 15.7812C7.50536 15.6953 7.26161 15.4432 7.17857 15.1233C7.11563 14.8781 7.06473 14.5125 7.02857 14.0665C7.00045 13.7244 6.98304 13.356 6.97232 12.9875C6.9683 12.8587 6.96696 12.7382 6.96563 12.6316C6.96563 12.5942 6.96429 12.5609 6.96429 12.5332V12.4668C6.96429 12.4377 6.96429 12.4058 6.96563 12.3684C6.96696 12.2604 6.96964 12.1413 6.97232 12.0125C6.9817 11.644 7.00045 11.2756 7.02857 10.9335C7.06473 10.4875 7.11563 10.1219 7.17857 9.87673C7.26161 9.55679 7.50536 9.30332 7.81339 9.21884C8.09464 9.14127 8.80313 9.07895 9.76607 9.04155C10.2536 9.02216 10.7786 9.0097 11.3022 9.00277C11.4857 9 11.6558 8.99861 11.8085 8.99861H12.1915L12.6978 9.00277C13.2214 9.0097 13.7451 9.02216 14.2339 9.04155C15.1969 9.08033 15.9067 9.14127 16.1866 9.21884C16.4946 9.30471 16.7384 9.55679 16.8214 9.87673C16.8844 10.1219 16.9353 10.4875 16.9714 10.9335C16.9996 11.2756 17.017 11.644 17.0277 12.0125C17.0317 12.1413 17.033 12.2618 17.0344 12.3684C17.0344 12.4058 17.0357 12.4391 17.0357 12.4668V12.5332ZM10.808 14.356L13.9152 12.4861L10.808 10.644V14.356Z" fill="#2B2A2A"/>
</svg>